<?xml version="1.0" encoding="utf-8"?>
<!-- Generator: Adobe Illustrator 24.1.0, SVG Export Plug-In . SVG Version: 6.00 Build 0)  -->
<svg version="1.1" id="Layer_1" image-rendering="optimizeQuality" shape-rendering="geometricPrecision"
	 xmlns="http://www.w3.org/2000/svg" xmlns:xlink="http://www.w3.org/1999/xlink" x="0px" y="0px" viewBox="0 0 3000 1031"
	 style="enable-background:new 0 0 3000 1031;" xml:space="preserve">
<style type="text/css">
	.st0{fill:#EB4335;}
	.st1{fill:#3FA9F5;}
	.st2{fill:#FBBC05;}
	.st3{fill:#34A853;}
	.st4{fill:#FFFFFF;}
</style>
<path class="st0" d="M94.6,503.6l175.4,0.3c2-150.8,123.9-272.7,274.7-274.7l-0.3-175.4C297,56,96.8,256.1,94.6,503.6z"/>
<path class="st1" d="M548.5,53.8c-1.4,0-2.7,0-4.1,0.1l0.3,175.4c1.3,0,2.5-0.1,3.8-0.1c152.9,0,277,123.2,278.5,275.8l175.4,0.3
	C1001.1,255.7,798.4,53.8,548.5,53.8z"/>
<path class="st1" d="M656.7,560.9h-55v55c0,30.4-24.6,55-55,55c-30.4,0-55-24.6-55-55v-55h-55c-30.4,0-55-24.6-55-55
	c0-30.4,24.6-55,55-55h55v-55c0-30.4,24.6-55,55-55c30.4,0,55,24.6,55,55v55h55c30.4,0,55,24.6,55,55
	C711.7,536.3,687.1,560.9,656.7,560.9z"/>
<path class="st2" d="M270,507.7c0-1.3,0.1-2.5,0.1-3.8l-175.4-0.3c0,1.4-0.1,2.7-0.1,4.1c0,249.9,201.9,452.6,451.5,453.9
	l-0.3-175.4C393.2,784.7,270,660.6,270,507.7z"/>
<path class="st3" d="M1002.4,505.3L827,505c0,0.9,0.1,1.8,0.1,2.7c0,153.8-124.7,278.5-278.5,278.5c-0.9,0-1.8-0.1-2.7-0.1
	l0.3,175.4c0.8,0,1.6,0,2.4,0c250.7,0,453.9-203.2,453.9-453.9C1002.4,506.9,1002.4,506.1,1002.4,505.3z"/>
<g>
	<path class="st4" d="M1332.4,442.6v13.7H1261v-7.7c0-22.6-1.8-37.4-5.3-44.3c-3.5-7-9.8-10.5-18.7-10.5c-9.1,0-15.5,3.5-19,10.5
		c-3.5,7-5.3,21.7-5.3,44.3v146.6c0,22.3,1.8,37,5.5,44.2c3.7,7.2,10.1,10.8,19.2,10.8c2.6,0,5.8-0.3,9.6-0.8
		c3.8-0.6,8.7-1.6,14.4-3V567h-20.2v-54.5h91.1v174.2c-17.8,6.2-34.2,10.9-49.3,13.8c-15.1,3-29.8,4.4-44.2,4.4
		c-37.2,0-63-8.9-77.4-26.8c-14.4-17.9-21.6-51-21.6-99.4V464.7c0-48.1,7.2-81,21.7-98.8c14.5-17.8,40.4-26.7,77.7-26.7
		c34.1,0,58.2,7.8,72.1,23.3C1325.4,378.1,1332.4,404.8,1332.4,442.6z"/>
	<path class="st4" d="M1548.9,556.7v37.5c0,42.1-6.3,71.1-19,87c-12.7,15.9-35.2,23.8-67.8,23.8c-32.5,0-55.1-7.9-67.9-23.8
		c-12.7-15.9-19.1-44.9-19.1-87v-37.5c0-42.1,6.3-71.1,19-87c12.7-15.9,35.2-23.8,67.5-23.8c32.7,0,55.4,7.9,68.1,23.7
		C1542.5,485.4,1548.9,514.4,1548.9,556.7z M1479.4,522.8c0-13.1-1.3-22.2-3.8-27.2c-2.6-5-7.1-7.4-13.5-7.4
		c-6.4,0-10.9,2.5-13.6,7.6c-2.6,5-4,14.1-4,27v105.3c0,13.3,1.3,22.3,3.8,27.2c2.6,4.8,7,7.2,13.2,7.2c6.6,0,11.2-2.5,13.8-7.4
		c2.6-5,4-13.9,4-26.9V522.8z"/>
	<path class="st4" d="M1762,556.7v37.5c0,42.1-6.3,71.1-19,87c-12.7,15.9-35.2,23.8-67.8,23.8c-32.5,0-55.1-7.9-67.9-23.8
		c-12.7-15.9-19.1-44.9-19.1-87v-37.5c0-42.1,6.3-71.1,19-87c12.7-15.9,35.2-23.8,67.5-23.8c32.7,0,55.4,7.9,68.1,23.7
		C1755.6,485.4,1762,514.4,1762,556.7z M1692.6,522.8c0-13.1-1.3-22.2-3.8-27.2c-2.6-5-7.1-7.4-13.5-7.4c-6.4,0-10.9,2.5-13.6,7.6
		c-2.6,5-4,14.1-4,27v105.3c0,13.3,1.3,22.3,3.8,27.2c2.6,4.8,7,7.2,13.2,7.2c6.6,0,11.2-2.5,13.8-7.4c2.6-5,4-13.9,4-26.9V522.8z"
		/>
	<path class="st4" d="M1901.4,480.5l1.9-28.6h67.3v263.4c0,30.4-6.1,51.5-18.4,63.1c-12.3,11.6-34.3,17.4-66.2,17.4
		c-29.8,0-51.3-5.3-64.6-15.9c-13.3-10.6-19.9-27.7-19.9-51.4V724h69.4v3.6c0,8.5,1.2,14.9,3.6,19.3c2.4,4.4,5.9,6.6,10.6,6.6
		c5.9,0,10.1-2.5,12.6-7.6c2.5-5,3.7-13.8,3.7-26.3v-60.6c-6.9,12-14.3,20.7-22.1,26.2c-7.9,5.4-17.1,8.2-27.6,8.2
		c-17.1,0-29.9-5.8-38.2-17.3c-8.3-11.5-12.5-29.2-12.5-52.9V515.9c0-23.7,4.2-41.3,12.6-52.7c8.4-11.5,21.4-17.2,39-17.2
		c9.9,0,18.8,2.8,26.7,8.3C1887.1,459.8,1894.5,468.5,1901.4,480.5z M1901.4,526.2c0-10.9-1.2-18.6-3.7-23.2
		c-2.5-4.6-6.5-6.8-12.1-6.8c-5.3,0-9.1,2.2-11.3,6.5c-2.2,4.3-3.4,12.2-3.4,23.5v87.2c0,11.5,1.1,19.4,3.4,23.7
		c2.2,4.2,6.2,6.4,11.8,6.4c5.4,0,9.4-2.3,11.8-7c2.4-4.6,3.6-12.3,3.6-23.1V526.2z"/>
	<path class="st4" d="M2011.9,344.5h69.4V699h-69.4V344.5z"/>
	<path class="st4" d="M2295.5,556.7v29.6h-104.3v41.8c0,13,1.3,21.9,4,26.9c2.6,5,7.2,7.4,13.6,7.4c7.2,0,12.3-2.5,15.3-7.6
		c3-5,4.4-14,4.4-26.8v-8.9h67v8.4c0,27.2-6.7,46.9-20.2,59.1c-13.5,12.2-35.1,18.3-64.9,18.3c-33.3,0-56.4-7.9-69.3-23.7
		c-12.9-15.8-19.3-44.8-19.3-87.1v-37.5c0-42.1,6.3-71.1,19-87c12.7-15.9,35.2-23.8,67.5-23.8c33,0,55.8,7.8,68.4,23.3
		C2289.2,484.8,2295.5,513.9,2295.5,556.7z M2228.4,521.9c0-13.8-1.4-23.3-4.2-28.6c-2.8-5.3-7.6-7.9-14.3-7.9
		c-6.9,0-11.7,2.6-14.5,7.8c-2.8,5.2-4.2,14.8-4.2,28.7v25h37.2V521.9z"/>
	<path class="st4" d="M2335.8,344.5h69.4v136c8-11.9,16.3-20.6,24.9-26.2c8.6-5.6,17.8-8.4,27.8-8.4c17.6,0,30,5.2,37.1,15.6
		c7.1,10.4,10.7,29.5,10.7,57.2V699h-69.9V526.2c0-11.4-1.1-19.2-3.4-23.5c-2.2-4.3-6.1-6.5-11.5-6.5c-5.6,0-9.6,2.3-12,6.8
		c-2.4,4.6-3.6,12.3-3.6,23.2V699h-69.4V344.5z"/>
	<path class="st4" d="M2714.8,517.8V699h-66.3l-2.9-28.6c-7.7,12-15.7,20.8-23.9,26.3c-8.3,5.5-17.3,8.3-27.3,8.3
		c-17.9,0-31.2-5.8-39.8-17.3c-8.6-11.5-12.9-29.2-12.9-53.1V605c0-21.5,7.7-37.2,23.2-47.1c15.5-9.9,42.3-16.1,80.6-18.5v-17.1
		c0-13.5-1.2-22.5-3.6-27.2c-2.4-4.6-6.5-7-12.3-7c-6.6,0-11.3,2.2-14.1,6.7c-2.8,4.5-4.2,12.3-4.2,23.3v4.1h-61.5v-4.6
		c0-27.1,6-45.8,17.9-56.2c11.9-10.4,33.4-15.6,64.3-15.6c31.4,0,53,5.2,64.9,15.5C2708.9,471.8,2714.8,490.6,2714.8,517.8z
		 M2645.6,581.5c-13.1,1.3-22.1,4.2-26.9,8.8s-7.2,12.3-7.2,23.2v16.1c0,12.3,1.3,20.7,3.8,25.2c2.6,4.5,6.9,6.7,13,6.7
		c6.2,0,10.7-2.3,13.3-7c2.6-4.6,4-13,4-25V581.5z"/>
	<path class="st4" d="M2756.1,344.5h69.4V699h-69.4V344.5z"/>
	<path class="st4" d="M2866.9,344.5h69.4V699h-69.4V344.5z"/>
</g>
</svg>
