<?xml version="1.0" encoding="utf-8"?>
<!-- Generator: Adobe Illustrator 24.1.0, SVG Export Plug-In . SVG Version: 6.00 Build 0)  -->
<svg version="1.1" id="Layer_1" xmlns="http://www.w3.org/2000/svg" xmlns:xlink="http://www.w3.org/1999/xlink" x="0px" y="0px"
	 viewBox="0 0 200 200" style="enable-background:new 0 0 200 200;" xml:space="preserve">
<style type="text/css">
	.st0{fill:#FFFFFF;}
</style>
<g>
	<path class="st0" d="M105.3,105.4l11.5,4.4c0.7,0.3,1.3,0.4,2,0.4c2.3,0,4.4-1.4,5.3-3.6c1.1-2.9-0.3-6.2-3.3-7.3l-11.5-4.4
		c-2.9-1.1-6.2,0.3-7.3,3.3C100.9,101.1,102.4,104.3,105.3,105.4L105.3,105.4z M105.3,105.4"/>
	<path class="st0" d="M271.5,125.3h-3.1c5.4-3.5,10-7.8,12.9-13c3.3-6,3.9-12.5,1.9-19.3c-1.8-6.3-5.4-11.1-10.6-14.3
		c2.5-6.4,3.8-13.3,3.8-20.2c0-30.3-24.6-54.9-54.9-54.9c-14.7,0-28.5,5.8-38.8,16.1l-26-37.3c-0.9-1.3-2.3-2.2-3.9-2.4
		c-1.6-0.2-3.2,0.3-4.4,1.3c-7.1,6.1-12.8,13.5-16.9,21.7c-5.8,0.6-11.2,3.1-15.5,5.7c-1-9-3.3-21.9-8.7-32.4
		c-1.4-2.8-4.8-3.8-7.6-2.4c-2.8,1.4-3.8,4.8-2.4,7.6c7.9,15.2,8.1,37.9,8.1,38.2c0,2.3,1.4,4.3,3.5,5.2c0.7,0.3,1.4,0.4,2.1,0.4
		c1.5,0,2.9-0.6,4-1.7c0.1-0.1,5.2-5.1,11.5-7.8c-0.7,2.7-1.3,5.4-1.8,8.1c-2.1,13.5-0.2,27.3,5.4,39.7L79.8,86.3
		C68.3,66.4,56.4,57.1,44.4,58.4c-3.4,0.4-6.1,1.2-8.3,2.3C27,46.3,23.4,35.1,26.6,30.3c1.2-1.8,4.7-7.2,15.5-4.7
		c6.4,1.4,11.8,4.8,11.9,4.9c1.9,1.2,4.4,1.2,6.2-0.1c1.9-1.3,2.8-3.6,2.3-5.8C61.7,21,60.8,15,60.4,8.2c0-0.2,0-0.3,0-0.5
		c-0.6-11,0.4-23.9,5.9-31.6c2.9-4,6.8-6.2,11.9-6.8c1.6-0.2,3.1-0.2,4.5,0c3.1,0.4,5.9-1.8,6.3-4.9c0.4-3.1-1.8-5.9-4.9-6.3
		c-2.3-0.3-4.7-0.3-7.2,0c-8.4,0.9-15,4.8-19.8,11.4c-4.7,6.5-7.3,15.5-8,26.8c-8.8-5.7-19-8.7-29.7-8.7
		c-30.3,0-54.9,24.6-54.9,54.9c0,10.7,3.1,20.9,8.8,29.8c-0.4,3.1-0.3,6.2,0.1,9.1c-10.9-3.1-28.4-6.5-40.8-0.5
		c-6.7,3.2-11.1,8.5-13.3,15.8c-3.7,12.5,1.9,21.8,9.7,28.5h-0.6c-11.3,0-20.5,9.2-20.5,20.5v1.2c0,11.3,9.2,20.5,20.5,20.5h18.6
		l45.1,44c-3.3,3.4-5.3,8.1-5.3,13.2v0.2c0,10.4,8.4,18.5,19.2,18.5h187.7c10.8,0,19.2-8.1,19.2-18.5v-0.2c0-5.1-2-9.8-5.3-13.2
		l45.1-44h18.6c11.3,0,20.5-9.2,20.5-20.5v-1.2C292,134.5,282.8,125.3,271.5,125.3L271.5,125.3z M271.4,106.9
		c-3.8,6.9-14.5,13.4-29.5,17.8c-0.5,0.1-1,0.4-1.4,0.6H136c10.8-16.2,14.4-35.9,10-54.8c4-3.5,7.7-5.1,11-4.7
		c5.5,0.6,6.7,2.8,7.1,3.5c2.4,4.5-0.9,13.6-2.8,17.3c-1.4,2.6-0.5,5.7,1.9,7.3c2.4,1.6,5.7,1.1,7.5-1.2
		c9.1-11.5,23.3-25.2,33.2-29.9c0.4-0.1,0.8-0.3,1.2-0.6c2.8-1.2,5.3-1.5,7-0.8c2.8,1.2,6.4,3.8,6.1,12c-0.2,5.6-2.3,10.8-2.3,10.8
		c-0.9,2.1-0.4,4.5,1.2,6.1c1.6,1.6,4,2.1,6.1,1.2c7.6-3.1,29.8-10,41.8-4.2c3.7,1.8,6.1,4.7,7.3,8.8
		C273.5,100.1,273.2,103.6,271.4,106.9L271.4,106.9z M99.1,121.3l-5-11.2c-1.3-2.8-4.6-4.1-7.4-2.8c-2.8,1.3-4.1,4.6-2.8,7.4
		l4.8,10.7H70.9l2.1-5.4c1.1-2.9-0.3-6.2-3.3-7.3c-2.9-1.1-6.2,0.3-7.3,3.2l-3.6,9.4H32.7c-0.1-0.1-2.3-2.8-3.3-4.1l105.8-47.4
		c3.7,17.6-0.8,36.4-12.4,50.3c-0.3,0.4-0.5,0.7-0.7,1.1H99.3C99.8,124,99.7,122.6,99.1,121.3L99.1,121.3z M202.2,47.7
		c3.9-6.9,11.2-11.3,19.3-11.3c12.2,0,22.1,9.9,22.1,22.1c0,6.7-3,13-8.2,17.2c-0.2,0.2-0.4,0.4-0.6,0.5c-2,0.5-4,1-5.7,1.5
		c1.3-9.8-0.6-21.5-12.6-26.6c-3.6-1.6-7.7-1.7-12.2-0.5L202.2,47.7z M221.5,14.9c24.1,0,43.6,19.6,43.6,43.6
		c0,5.7-1.1,11.1-3.1,16.2c-3.5-0.7-7.2-0.9-10.9-0.7c2.5-4.7,3.8-10,3.8-15.5c0-18.4-15-33.4-33.4-33.4c-10.4,0-19.9,4.8-26.2,12.7
		l-6.1-8.7C197.5,20,209.2,14.9,221.5,14.9L221.5,14.9z M151.2-5.7l42.7,61.2c-4.2,2.6-8.7,6.1-13.6,10.5c-1.5,1.4-3,2.8-4.5,4.2
		c-0.3-2.1-0.9-4.2-1.9-6.1c-2-3.7-6.3-8.4-15.8-9.5c-5.8-0.6-11.5,1.2-17.3,5.5c-5-10.6-6.8-22.6-5-34.3
		C137.8,13.9,143.1,2.9,151.2-5.7L151.2-5.7z M28,69.1c-0.7,1.6-1.1,3.2-1.3,4.9c-1.4-1.4-2.9-2.8-4.5-4.2
		C14.5,62.7,7.6,58,1.5,55.6c-0.1-0.1-0.1-0.2-0.2-0.3c-2.6-3.7-4-8.1-4-12.7c0-12.2,9.9-22.1,22.1-22.1c0.2,0,0.4,0,0.6,0
		c-1,1.1-2,2.3-2.9,3.6C10.9,33.6,14.5,48.3,28,69.1L28,69.1z M-24.2,42.6C-24.2,18.6-4.6-1,19.5-1c11.2,0,21.7,4.2,29.8,11.8
		c0.1,1.9,0.3,3.7,0.5,5.3c-4.2-1.5-8.9-2.4-13.6-2.3c-5.1-3-10.8-4.5-16.8-4.5c-18.4,0-33.4,15-33.4,33.4c0,4,0.7,7.9,2.1,11.6
		c-0.7,0.2-1.4,0.4-2.1,0.7c-2.8,1.2-5,2.8-6.8,4.6C-23,54.2-24.2,48.5-24.2,42.6L-24.2,42.6z M-49.7,124.9
		c-16.2-6.8-23-15.1-20.1-24.9c1.2-4.2,3.6-7,7.3-8.8c12-5.7,34.3,1.1,41.8,4.2c2.1,0.9,4.5,0.4,6.1-1.2c1.6-1.6,2.1-4,1.2-6.1
		c0,0-2.1-5.2-2.3-10.8c-0.4-8.3,3.3-10.8,6.1-12c8-3.5,29.3,15.9,41.5,31.3c1.8,2.3,5,2.8,7.5,1.2c2.4-1.6,3.3-4.8,1.9-7.3
		c-1.9-3.7-5.2-12.8-2.8-17.3c0.4-0.7,1.5-2.9,7.1-3.5c6.8-0.8,15.3,7,23.8,21.3l-50.6,22.7c-1.5,0.6-2.6,1.9-3.1,3.4
		c-0.5,1.5-0.3,3.2,0.5,4.5c0.7,1.3,1.5,2.5,2.4,3.8h-67.5C-49.1,125.1-49.4,125-49.7,124.9L-49.7,124.9z M201.8,224.9
		c0,4.7-4,7.2-8,7.2H6.2c-4,0-8-2.5-8-7.2v-0.2c0-4.4,3.6-8,8-8h187.7c4.4,0,8,3.6,8,8V224.9z M280.8,147c0,5.1-4.2,9.3-9.3,9.3
		H15.6c-3.1,0-5.6,2.5-5.6,5.6c0,3.1,2.5,5.6,5.6,5.6h221.2l-38.9,38H2.2l-38.9-38h29.9c3.1,0,5.6-2.5,5.6-5.6
		c0-3.1-2.5-5.6-5.6-5.6h-64.6c-5.1,0-9.3-4.2-9.3-9.3v-1.2c0-5.1,4.2-9.3,9.3-9.3h343c5.1,0,9.3,4.2,9.3,9.3V147z M280.8,147"/>
	<path class="st0" d="M154.1,44.6c0.1,0,0.1,0,0.2,0l10.6-0.4c3.1-0.1,5.5-2.7,5.4-5.8c-0.1-3.1-2.7-5.5-5.8-5.4l-10.6,0.4
		c-3.1,0.1-5.5,2.7-5.4,5.8C148.6,42.2,151.1,44.6,154.1,44.6L154.1,44.6z M154.1,44.6"/>
</g>
</svg>
